<?xml version="1.0" encoding="utf-8"?>
<!-- Generator: Adobe Illustrator 23.0.1, SVG Export Plug-In . SVG Version: 6.00 Build 0)  -->
<svg version="1.1" xmlns="http://www.w3.org/2000/svg" xmlns:xlink="http://www.w3.org/1999/xlink" x="0px" y="0px"
	 viewBox="0 0 1920 1080" style="enable-background:new 0 0 1920 1080;" xml:space="preserve">
<style type="text/css">
	.st0{fill:#0F2A82;}
	.st1{fill:none;stroke:#000000;stroke-miterlimit:10;}
</style>
<g id="Layer_2">
	<g id="XMLID_2_">
		<g>
			<path class="st0" d="M1957.21,678.58c14.19,112.19,16.64,225.87,7.28,338.57c-2.23,26.96-6.36,56.4-26.28,74.71
				c-12.21,11.22-28.6,16.47-44.43,21.41c-51.53,16.07-104.09,32.29-158.07,31.78c-51.58-0.49-101.59-16.23-152.04-26.95
				c-121.65-25.86-247.35-22.66-371.67-19.34c-359.46,9.59-718.91,19.18-1078.37,28.77c-50.51,1.35-108.19-0.28-141.22-38.53
				c-13.41-15.52-20.78-35.27-27.01-54.82c-41.87-131.53-42.74-275.77-2.71-407.86c32.06-30.15,56.85-67.26,87.69-98.69
				c31.29-31.87,72.05-58.71,116.71-57.87c47.77,0.89,89.41,33.13,120.28,69.59c30.87,36.46,55.07,78.67,89.8,111.48
				c34.72,32.8,84.83,55.47,130.26,40.68c25.37-8.26,45.77-26.93,65.33-45.08c45.23-41.99,90.46-83.97,135.69-125.96
				c34.25-31.79,70.48-64.7,115.73-76.37c86.17-22.21,170.14,38.55,235.65,98.76c29.05,26.7,59.42,55.13,97.84,64.09
				c31.68,7.39,65.17,0.39,95.31-11.86c45.68-18.57,86.34-49.33,116.63-88.24c27.97-35.93,46.84-78.01,71.95-115.99
				c8.19-12.4,17.53-24.78,30.72-31.62c17.69-9.17,39.19-6.76,58.25-0.95c76.1,23.22,128.98,94.35,155.96,169.2
				c7.66,21.25,14.05,43.74,28.69,60.94c14.64,17.21,40.69,27.37,60.31,16.18c16.74-9.55,23.32-30.79,38.66-42.45
				c19.73-15.01,49.31-9.75,68.94,5.38c16.08,12.39,27.04,29.87,36.76,47.87c8.7,2.28,16.93,7.87,22.35,15.12
				C1952.36,644.13,1955.07,661.74,1957.21,678.58z"/>
		</g>
		<g>
			<path class="st1" d="M-38.7,627.63c0.47-0.43,0.93-0.87,1.39-1.31c32.06-30.15,56.85-67.26,87.69-98.69
				c31.29-31.87,72.05-58.71,116.71-57.87c47.77,0.89,89.41,33.13,120.28,69.59c30.87,36.46,55.07,78.67,89.8,111.48
				c34.72,32.8,84.83,55.47,130.26,40.68c25.37-8.26,45.77-26.93,65.33-45.08c45.23-41.99,90.46-83.97,135.69-125.96
				c34.25-31.79,70.48-64.7,115.73-76.37c86.17-22.21,170.14,38.55,235.65,98.76c29.05,26.7,59.42,55.13,97.84,64.09
				c31.68,7.39,65.17,0.39,95.31-11.86c45.68-18.57,86.34-49.33,116.63-88.24c27.97-35.93,46.84-78.01,71.95-115.99
				c8.19-12.4,17.53-24.78,30.72-31.62c17.69-9.17,39.19-6.76,58.25-0.95c76.1,23.22,128.98,94.35,155.96,169.2
				c7.66,21.25,14.05,43.74,28.69,60.94c14.64,17.21,40.69,27.37,60.31,16.18c16.74-9.55,23.32-30.79,38.66-42.45
				c19.73-15.01,49.31-9.75,68.94,5.38c16.08,12.39,27.04,29.87,36.76,47.87c2.15,3.99,4.24,8,6.31,12"/>
			<path class="st1" d="M-32.56,611.26c-1.65,5-3.23,10.02-4.75,15.06c-40.03,132.09-39.16,276.33,2.71,407.86
				c6.23,19.55,13.6,39.3,27.01,54.82c33.03,38.25,90.71,39.88,141.22,38.53c359.46-9.59,718.91-19.18,1078.37-28.77
				c124.32-3.32,250.02-6.52,371.67,19.34c50.45,10.72,100.46,26.46,152.04,26.95c53.98,0.51,106.54-15.71,158.07-31.78
				c15.83-4.94,32.22-10.19,44.43-21.41c19.92-18.31,24.05-47.75,26.28-74.71c9.36-112.7,6.91-226.38-7.28-338.57
				c-2.14-16.84-4.85-34.45-15.01-48.05c-5.42-7.25-13.65-12.84-22.35-15.12c-7.61-2-15.58-1.46-22.32,2.72"/>
		</g>
	</g>
</g>
<g id="Layer_3">
</g>
</svg>
