<?xml version="1.0" encoding="utf-8"?>
<!-- Generator: Adobe Illustrator 23.0.1, SVG Export Plug-In . SVG Version: 6.00 Build 0)  -->
<svg version="1.1" id="Layer_1" xmlns="http://www.w3.org/2000/svg" xmlns:xlink="http://www.w3.org/1999/xlink" x="0px" y="0px"
	 viewBox="0 0 1024 768" style="enable-background:new 0 0 1024 768;" xml:space="preserve">
<style type="text/css">
	.st0{fill:#B79C67;}
	.st1{fill:#A58449;}
	.st2{fill:#FFFFFF;}
	.st3{fill:#D8B77C;}
	.st4{fill:#0F477A;}
	.st5{fill:#C4226C;}
	.st6{fill:#070104;}
</style>
<g>
	<path class="st0" d="M294,570.5c-6.34,0-11.5-5.16-11.5-11.5V150c0-6.34,5.16-11.5,11.5-11.5h387c6.34,0,11.5,5.16,11.5,11.5v409
		c0,6.34-5.16,11.5-11.5,11.5H294z"/>
	<path d="M681,139c6.07,0,11,4.93,11,11v409c0,6.07-4.93,11-11,11H294c-6.07,0-11-4.93-11-11V150c0-6.07,4.93-11,11-11H681 M681,138
		H294c-6.6,0-12,5.4-12,12v409c0,6.6,5.4,12,12,12h387c6.6,0,12-5.4,12-12V150C693,143.4,687.6,138,681,138L681,138z"/>
</g>
<g>
	<ellipse class="st1" cx="481" cy="348" rx="53.5" ry="108.5"/>
	<path d="M481,240c29.22,0,53,48.45,53,108s-23.78,108-53,108s-53-48.45-53-108S451.78,240,481,240 M481,239
		c-29.82,0-54,48.8-54,109s24.18,109,54,109s54-48.8,54-109S510.82,239,481,239L481,239z"/>
</g>
<g>
	<circle class="st2" cx="381" cy="254" r="49.5"/>
	<path d="M381,205c27.02,0,49,21.98,49,49s-21.98,49-49,49s-49-21.98-49-49S353.98,205,381,205 M381,204c-27.61,0-50,22.39-50,50
		s22.39,50,50,50s50-22.39,50-50S408.61,204,381,204L381,204z"/>
</g>
<g>
	<circle class="st2" cx="585" cy="254" r="49.5"/>
	<path d="M585,205c27.02,0,49,21.98,49,49s-21.98,49-49,49s-49-21.98-49-49S557.98,205,585,205 M585,204c-27.61,0-50,22.39-50,50
		s22.39,50,50,50s50-22.39,50-50S612.61,204,585,204L585,204z"/>
</g>
<g>
	<ellipse class="st3" cx="271" cy="356.5" rx="30.5" ry="45"/>
	<path d="M271,312c16.54,0,30,19.96,30,44.5S287.54,401,271,401s-30-19.96-30-44.5S254.46,312,271,312 M271,311
		c-17.12,0-31,20.37-31,45.5s13.88,45.5,31,45.5s31-20.37,31-45.5S288.12,311,271,311L271,311z"/>
</g>
<g>
	<ellipse class="st3" cx="699" cy="354.5" rx="30.5" ry="45"/>
	<path d="M699,310c16.54,0,30,19.96,30,44.5S715.54,399,699,399s-30-19.96-30-44.5S682.46,310,699,310 M699,309
		c-17.12,0-31,20.37-31,45.5s13.88,45.5,31,45.5s31-20.37,31-45.5S716.12,309,699,309L699,309z"/>
</g>
<g>
	<circle class="st4" cx="388.5" cy="270.5" r="23"/>
	<path d="M388.5,248c12.41,0,22.5,10.09,22.5,22.5S400.91,293,388.5,293S366,282.91,366,270.5S376.09,248,388.5,248 M388.5,247
		c-12.98,0-23.5,10.52-23.5,23.5s10.52,23.5,23.5,23.5s23.5-10.52,23.5-23.5S401.48,247,388.5,247L388.5,247z"/>
</g>
<g>
	<circle class="st4" cx="584.5" cy="270.5" r="23"/>
	<path d="M584.5,248c12.41,0,22.5,10.09,22.5,22.5S596.91,293,584.5,293S562,282.91,562,270.5S572.09,248,584.5,248 M584.5,247
		c-12.98,0-23.5,10.52-23.5,23.5s10.52,23.5,23.5,23.5s23.5-10.52,23.5-23.5S597.48,247,584.5,247L584.5,247z"/>
</g>
<g>
	<ellipse class="st5" cx="478" cy="491" rx="65.5" ry="14.5"/>
	<path d="M478,477c17.56,0,34.05,1.55,46.45,4.37c11.62,2.64,18.55,6.24,18.55,9.63s-6.94,6.99-18.55,9.63
		c-12.4,2.82-28.89,4.37-46.45,4.37s-34.05-1.55-46.45-4.37C419.94,497.99,413,494.39,413,491s6.94-6.99,18.55-9.63
		C443.95,478.55,460.44,477,478,477 M478,476c-36.45,0-66,6.72-66,15s29.55,15,66,15s66-6.72,66-15S514.45,476,478,476L478,476z"/>
</g>
<g>
	<ellipse class="st5" cx="478" cy="516.5" rx="53.5" ry="10"/>
	<path d="M478,507c34.13,0,53,5.62,53,9.5s-18.87,9.5-53,9.5s-53-5.62-53-9.5S443.87,507,478,507 M478,506c-29.82,0-54,4.7-54,10.5
		s24.18,10.5,54,10.5s54-4.7,54-10.5S507.82,506,478,506L478,506z"/>
</g>
<g>
	<path class="st6" d="M252,195.5c-6.34,0-11.5-5.16-11.5-11.5V91c0-6.34,5.16-11.5,11.5-11.5h466c6.34,0,11.5,5.16,11.5,11.5v93
		c0,6.34-5.16,11.5-11.5,11.5H252z"/>
	<path d="M718,80c6.07,0,11,4.93,11,11v93c0,6.07-4.93,11-11,11H252c-6.07,0-11-4.93-11-11V91c0-6.07,4.93-11,11-11H718 M718,79H252
		c-6.6,0-12,5.4-12,12v93c0,6.6,5.4,12,12,12h466c6.6,0,12-5.4,12-12V91C730,84.4,724.6,79,718,79L718,79z"/>
</g>
</svg>
