<?xml version="1.0" encoding="utf-8"?>
<!-- Generator: Adobe Illustrator 23.0.1, SVG Export Plug-In . SVG Version: 6.00 Build 0)  -->
<svg version="1.1" xmlns="http://www.w3.org/2000/svg" xmlns:xlink="http://www.w3.org/1999/xlink" x="0px" y="0px"
	 viewBox="0 0 1920 1080" style="enable-background:new 0 0 1920 1080;" xml:space="preserve">
<style type="text/css">
	.st0{fill:#908FB2;}
</style>
<g id="Layer_2">
	<g>
		<path class="st0" d="M127.57,1085.33c-41.73-100.76-35.35-220.26,16.89-316s149.25-165.79,256.57-185.23
			c31-5.62,63.53-7.12,93.51,2.57c30.07,9.72,55.64,30.08,77.39,53.01c52.11,54.94,84.93,124.9,116.87,193.55
			c12.64,27.17,25.35,54.52,32.95,83.51c6.04,23.06,8.77,46.84,11.47,70.52c4.92,43.02,9.83,86.04,14.75,129.06"/>
		<g>
			<path d="M129.02,1084.93c-32.98-80.17-35.93-171.54-9.35-253.98c24.98-77.46,76.83-144.18,144.36-189.33
				c32.6-21.8,68.6-38.53,106.42-48.99c43.17-11.94,91.92-18.42,134.38-0.53c40.84,17.21,72.69,52.43,98.28,87.55
				c26.08,35.79,46.74,75.17,65.88,115c10.06,20.94,19.99,41.98,29.46,63.19c9.91,22.2,18.79,44.9,24.12,68.68
				c5.58,24.87,7.96,50.34,10.85,75.63c2.91,25.48,5.82,50.96,8.74,76.44c1.44,12.58,2.87,25.15,4.31,37.73c0.22,1.9,3.22,1.92,3,0
				c-5.95-52.09-11.02-104.38-18.06-156.34c-3.39-25.01-8.79-49.34-17.65-73.01c-8.37-22.35-18.71-43.9-28.79-65.51
				c-19.46-41.69-39.47-83.35-64.59-121.99c-23.76-36.54-52.57-72.7-89.44-96.76c-18.68-12.19-39.41-20.25-61.58-23.14
				c-23.38-3.04-47.13-0.94-70.22,3.35c-39.31,7.3-77.3,21.42-112.12,41.04c-70.26,39.59-127.57,101.71-159.07,176.15
				c-33.84,79.99-38.52,172.03-12.86,255.02c3.2,10.36,6.9,20.56,11.03,30.59C126.85,1087.49,129.76,1086.72,129.02,1084.93
				L129.02,1084.93z"/>
		</g>
	</g>
	<g>
		<path class="st0" d="M973.07,1099.94c-23.34-138.04-16.28-281.13,20.54-416.2c12.09-44.35,27.58-88.34,52.8-126.78
			c48.59-74.05,129.67-121.53,213.87-148.99c37.8-12.32,77.52-21.21,117.12-17.63c80.5,7.26,149.27,65.97,189.13,136.28
			c39.86,70.31,55.45,151.45,68.61,231.2c18.09,109.57,32.74,219.7,43.92,330.19"/>
		<g>
			<path d="M974.51,1099.54c-20.24-120.42-17.53-244.53,8.03-363.94c12.18-56.91,27.88-115.22,57.61-165.73
				c26.24-44.57,64.41-80.68,107.85-108.31c44.41-28.24,94.46-48.98,145.5-61.66c29.29-7.27,59.76-11.13,89.88-7.43
				c24.36,2.99,47.98,10.89,69.66,22.32c43.51,22.95,79.32,59.4,105.25,100.9c30.05,48.1,47.38,103.06,59.61,158.09
				c13.08,58.87,21.72,118.84,30.46,178.47c9.24,62.98,17.34,126.13,24.31,189.4c1.7,15.44,3.33,30.89,4.9,46.34
				c0.19,1.9,3.19,1.92,3,0c-6.55-64.58-14.26-129.05-23.16-193.35c-8.62-62.33-17.75-124.73-29.45-186.57
				c-10.81-57.19-25.28-114.38-51.72-166.55c-22.43-44.26-54.25-84.12-94.95-112.89c-42.72-30.2-93.07-44.72-145.32-39.39
				c-29.59,3.02-58.49,11.04-86.52,20.77c-24.03,8.34-47.55,18.27-70.12,30.03c-45.42,23.66-87.46,55.11-119.32,95.51
				c-35.28,44.73-54.81,98.75-69.32,153.24c-31.83,119.56-40.46,245.27-25.39,368.07c1.78,14.53,3.9,29.01,6.33,43.45
				C971.94,1102.24,974.83,1101.43,974.51,1099.54L974.51,1099.54z"/>
		</g>
	</g>
	<g>
		<path class="st0" d="M1630.87,1081.4"/>
		<g>
			<path d="M1630.87,1082.9c1.93,0,1.93-3,0-3C1628.94,1079.9,1628.93,1082.9,1630.87,1082.9L1630.87,1082.9z"/>
		</g>
	</g>
</g>
<g id="Layer_3">
</g>
</svg>
