<?xml version="1.0" encoding="utf-8"?>
<!-- Generator: Adobe Illustrator 23.0.1, SVG Export Plug-In . SVG Version: 6.00 Build 0)  -->
<svg version="1.1" id="Layer_1" xmlns="http://www.w3.org/2000/svg" xmlns:xlink="http://www.w3.org/1999/xlink" x="0px" y="0px"
	 viewBox="0 0 1920 1080" style="enable-background:new 0 0 1920 1080;" xml:space="preserve">
<style type="text/css">
	.st0{fill:#7E70B3;}
	.st1{fill:none;stroke:#000000;stroke-width:0.5;stroke-linecap:round;stroke-linejoin:round;}
</style>
<g>
	<g id="XMLID_1_">
		<g>
			<path class="st0" d="M1856.6,446.7c40.6,208.2,68.6,418.8,83.8,630.3c-90,23.4-183.8,26.9-276.8,30.1
				c-528.6,17.8-1057.5,24.8-1586.3,21.1c-27.8-0.2-57.8-1.1-79.8-18.1c-28.8-22.2-33.6-62.9-36.1-99.2
				c-6.2-89.6-6.5-193.9,62.7-251.2l-8.4,31.7c57.4-148.5,41-326.4,136.1-454.1c14.2-19.1,33.7-37.9,57.4-37.6
				c30,0.4,50.3,30.1,63.7,57C344.6,499.8,380,660.6,466.1,795.5c7,11.1,16.4,23,29.5,23.7c8.1,0.4,15.6-3.9,22.5-8.2
				C669,717,748.2,544.6,826.8,385.1c17-34.5,38-72,74.8-83.4c20.5-6.4,43.2-3.1,63,5.1c42.3,17.5,72.9,56,92.4,97.5
				c19.4,41.5,29.4,86.6,42.7,130.5c34.2,113.5,90.8,220.1,165.6,312c20.3,25,45.8,50.7,78,51.4c16.2,0.3,31.9-6,45.9-14.2
				c61.1-35.9,93.3-105.4,117.8-171.9c39.3-106.6,68.5-217.1,114.2-321.1c20.1-45.6,45.8-92.5,89.8-116
				c11.6-6.2,24.5-10.6,37.7-10.1c28.5,1.1,51.2,24.5,65.6,49.1C1837.8,354.3,1847.7,400.9,1856.6,446.7z"/>
		</g>
		<g>
			<path class="st1" d="M15.7,791.5c57.4-148.6,41-326.5,136.1-454.2c14.2-19.1,33.7-37.9,57.4-37.6c30,0.4,50.3,30.1,63.7,57
				C344.6,499.8,380,660.6,466.1,795.5c7,11.1,16.4,23,29.5,23.7c8.1,0.4,15.6-3.9,22.5-8.2C669,717,748.2,544.6,826.8,385.1
				c17-34.5,38-72,74.8-83.4c20.5-6.4,43.2-3.1,63,5.1c42.3,17.5,72.9,56,92.4,97.5c19.4,41.5,29.4,86.6,42.7,130.5
				c34.2,113.5,90.8,220.1,165.6,312c20.3,25,45.8,50.7,78,51.4c16.2,0.3,31.9-6,45.9-14.2c61.1-35.9,93.3-105.4,117.8-171.9
				c39.3-106.6,68.5-217.1,114.2-321.1c20.1-45.6,45.8-92.5,89.8-116c11.6-6.2,24.5-10.6,37.7-10.1c28.5,1.1,51.2,24.5,65.6,49.1
				c23.5,40.3,33.4,86.9,42.3,132.6c40.6,208.2,68.6,418.8,83.8,630.3c-90,23.4-183.8,26.9-276.8,30.1
				c-528.6,17.8-1057.5,24.8-1586.3,21.1c-27.8-0.2-57.8-1.1-79.8-18.1c-28.8-22.2-33.6-62.9-36.1-99.2
				c-6.2-89.6-6.5-193.9,62.7-251.2"/>
		</g>
	</g>
</g>
<g id="Layer_3">
</g>
</svg>
